<?xml version="1.0" encoding="UTF-8"?>
<svg version="1.1" xmlns="http://www.w3.org/2000/svg" width="342" height="345">
<path d="M0 0 C3.10648106 0.01072377 6.21238402 0.00004614 9.31884766 -0.01269531 C20.25459593 -0.01923583 30.82388126 0.37693012 41.61181641 2.26074219 C41.61181641 2.92074219 41.61181641 3.58074219 41.61181641 4.26074219 C47.05681641 4.75574219 47.05681641 4.75574219 52.61181641 5.26074219 C52.61181641 5.92074219 52.61181641 6.58074219 52.61181641 7.26074219 C55.58181641 7.59074219 58.55181641 7.92074219 61.61181641 8.26074219 C61.61181641 8.92074219 61.61181641 9.58074219 61.61181641 10.26074219 C62.30662109 10.37289063 63.00142578 10.48503906 63.71728516 10.60058594 C66.98214605 11.34520333 69.84781846 12.50474307 72.92431641 13.82324219 C73.99294922 14.27828125 75.06158203 14.73332031 76.16259766 15.20214844 C76.97083984 15.55148438 77.77908203 15.90082031 78.61181641 16.26074219 C78.61181641 16.92074219 78.61181641 17.58074219 78.61181641 18.26074219 C80.59181641 18.59074219 82.57181641 18.92074219 84.61181641 19.26074219 C84.61181641 19.92074219 84.61181641 20.58074219 84.61181641 21.26074219 C86.26181641 21.59074219 87.91181641 21.92074219 89.61181641 22.26074219 C89.61181641 22.92074219 89.61181641 23.58074219 89.61181641 24.26074219 C90.32724609 24.51855469 91.04267578 24.77636719 91.77978516 25.04199219 C94.78341752 26.33458984 97.24687012 27.88851308 99.92431641 29.76074219 C100.80732422 30.36917969 101.69033203 30.97761719 102.60009766 31.60449219 C103.59589844 32.42433594 103.59589844 32.42433594 104.61181641 33.26074219 C104.61181641 33.92074219 104.61181641 34.58074219 104.61181641 35.26074219 C105.93181641 35.59074219 107.25181641 35.92074219 108.61181641 36.26074219 C108.61181641 36.92074219 108.61181641 37.58074219 108.61181641 38.26074219 C109.5109375 38.40576172 109.5109375 38.40576172 110.42822266 38.55371094 C113.07200033 39.40974628 113.86630473 40.3960498 115.54931641 42.57324219 C117.40344182 44.87217041 118.95507169 46.53215334 121.29931641 48.38574219 C123.82753471 50.43564892 125.0191152 52.45455435 126.61181641 55.26074219 C127.27181641 55.59074219 127.93181641 55.92074219 128.61181641 56.26074219 C128.61181641 56.92074219 128.61181641 57.58074219 128.61181641 58.26074219 C129.27181641 58.26074219 129.93181641 58.26074219 130.61181641 58.26074219 C134.61181641 63.67250689 134.61181641 63.67250689 134.61181641 66.26074219 C135.27181641 66.26074219 135.93181641 66.26074219 136.61181641 66.26074219 C136.61181641 67.25074219 136.61181641 68.24074219 136.61181641 69.26074219 C137.60181641 69.59074219 138.59181641 69.92074219 139.61181641 70.26074219 C141.05672751 72.57259996 142.34077605 74.85643159 143.61181641 77.26074219 C144.52791926 78.8652309 145.44459173 80.46939451 146.36181641 82.07324219 C148.61181641 86.01074219 148.61181641 86.01074219 148.61181641 88.26074219 C149.27181641 88.26074219 149.93181641 88.26074219 150.61181641 88.26074219 C150.92634766 89.08316406 151.24087891 89.90558594 151.56494141 90.75292969 C152.20689453 92.42742187 152.20689453 92.42742187 152.86181641 94.13574219 C153.31427734 95.3178125 153.76673828 96.49988281 154.23291016 97.71777344 C155.72607433 101.55431708 157.29711237 105.35315525 158.91259766 109.13964844 C159.61181641 111.26074219 159.61181641 111.26074219 159.61181641 115.26074219 C160.27181641 115.26074219 160.93181641 115.26074219 161.61181641 115.26074219 C161.74458984 116.04320313 161.87736328 116.82566406 162.01416016 117.63183594 C162.19076172 118.64375 162.36736328 119.65566406 162.54931641 120.69824219 C162.72333984 121.70757812 162.89736328 122.71691406 163.07666016 123.75683594 C163.35932737 126.18948598 163.35932737 126.18948598 164.61181641 127.26074219 C167.10825868 139.20105421 166.92013489 151.36597258 166.87255859 163.50341797 C166.86183618 166.75474697 166.87250943 170.00552362 166.88525391 173.25683594 C166.89519544 186.968824 166.52479163 200.01258236 162.61181641 213.26074219 C162.25810143 214.92320259 161.91586319 216.5884849 161.61181641 218.26074219 C160.95181641 218.26074219 160.29181641 218.26074219 159.61181641 218.26074219 C159.43779297 219.53111328 159.43779297 219.53111328 159.26025391 220.82714844 C157.66945538 229.25071412 154.13949186 237.46272277 150.61181641 245.26074219 C149.95181641 245.26074219 149.29181641 245.26074219 148.61181641 245.26074219 C148.24056641 246.25074219 148.24056641 246.25074219 147.86181641 247.26074219 C145.35789333 253.27015758 142.52709365 259.04037252 138.61181641 264.26074219 C137.95181641 264.26074219 137.29181641 264.26074219 136.61181641 264.26074219 C136.61181641 265.25074219 136.61181641 266.24074219 136.61181641 267.26074219 C135.95181641 267.26074219 135.29181641 267.26074219 134.61181641 267.26074219 C134.32306641 268.02386719 134.03431641 268.78699219 133.73681641 269.57324219 C132.61181641 272.26074219 132.61181641 272.26074219 130.61181641 275.26074219 C129.95181641 275.26074219 129.29181641 275.26074219 128.61181641 275.26074219 C128.61181641 275.92074219 128.61181641 276.58074219 128.61181641 277.26074219 C127.30207643 278.61725859 125.96379499 279.94631856 124.61181641 281.26074219 C124.01369141 282.04449219 123.41556641 282.82824219 122.79931641 283.63574219 C120.50441135 286.38962825 118.0528795 288.55875255 115.29541016 290.83105469 C113.57105209 292.24289499 113.57105209 292.24289499 112.02197266 293.94042969 C110.61181641 295.26074219 110.61181641 295.26074219 108.61181641 295.26074219 C108.61181641 295.92074219 108.61181641 296.58074219 108.61181641 297.26074219 C107.29181641 297.59074219 105.97181641 297.92074219 104.61181641 298.26074219 C104.61181641 298.92074219 104.61181641 299.58074219 104.61181641 300.26074219 C102.5173196 301.89503969 100.4339955 303.40241453 98.23681641 304.88574219 C97.63353516 305.30597656 97.03025391 305.72621094 96.40869141 306.15917969 C91.87718775 309.26074219 91.87718775 309.26074219 89.61181641 309.26074219 C89.61181641 309.92074219 89.61181641 310.58074219 89.61181641 311.26074219 C87.96181641 311.59074219 86.31181641 311.92074219 84.61181641 312.26074219 C84.61181641 312.92074219 84.61181641 313.58074219 84.61181641 314.26074219 C82.63181641 314.59074219 80.65181641 314.92074219 78.61181641 315.26074219 C78.61181641 315.92074219 78.61181641 316.58074219 78.61181641 317.26074219 C76.71849107 318.07906941 74.82203907 318.89016486 72.92431641 319.69824219 C71.86857422 320.15070313 70.81283203 320.60316406 69.72509766 321.06933594 C66.99209112 322.11521673 64.49139304 322.79594967 61.61181641 323.26074219 C61.61181641 323.92074219 61.61181641 324.58074219 61.61181641 325.26074219 C58.64181641 325.59074219 55.67181641 325.92074219 52.61181641 326.26074219 C52.61181641 326.92074219 52.61181641 327.58074219 52.61181641 328.26074219 C48.98181641 328.59074219 45.35181641 328.92074219 41.61181641 329.26074219 C41.61181641 329.92074219 41.61181641 330.58074219 41.61181641 331.26074219 C29.80190926 333.32301317 18.18992461 333.57056524 6.22363281 333.52148438 C3.11715176 333.51076061 0.01124879 333.52143824 -3.09521484 333.53417969 C-14.03096312 333.54072021 -24.60024845 333.14455425 -35.38818359 331.26074219 C-35.38818359 330.60074219 -35.38818359 329.94074219 -35.38818359 329.26074219 C-39.01818359 328.93074219 -42.64818359 328.60074219 -46.38818359 328.26074219 C-46.38818359 327.60074219 -46.38818359 326.94074219 -46.38818359 326.26074219 C-49.35818359 325.93074219 -52.32818359 325.60074219 -55.38818359 325.26074219 C-55.38818359 324.60074219 -55.38818359 323.94074219 -55.38818359 323.26074219 C-56.08298828 323.14859375 -56.77779297 323.03644531 -57.49365234 322.92089844 C-60.75851324 322.17628104 -63.62418564 321.01674131 -66.70068359 319.69824219 C-67.76931641 319.24320312 -68.83794922 318.78816406 -69.93896484 318.31933594 C-70.74720703 317.97 -71.55544922 317.62066406 -72.38818359 317.26074219 C-72.38818359 316.60074219 -72.38818359 315.94074219 -72.38818359 315.26074219 C-74.36818359 314.93074219 -76.34818359 314.60074219 -78.38818359 314.26074219 C-78.38818359 313.60074219 -78.38818359 312.94074219 -78.38818359 312.26074219 C-80.03818359 311.93074219 -81.68818359 311.60074219 -83.38818359 311.26074219 C-83.38818359 310.60074219 -83.38818359 309.94074219 -83.38818359 309.26074219 C-84.10361328 309.00292969 -84.81904297 308.74511719 -85.55615234 308.47949219 C-88.5597847 307.18689454 -91.02323731 305.63297129 -93.70068359 303.76074219 C-94.58369141 303.15230469 -95.46669922 302.54386719 -96.37646484 301.91699219 C-97.04033203 301.37042969 -97.70419922 300.82386719 -98.38818359 300.26074219 C-98.38818359 299.60074219 -98.38818359 298.94074219 -98.38818359 298.26074219 C-99.70818359 297.93074219 -101.02818359 297.60074219 -102.38818359 297.26074219 C-102.38818359 296.60074219 -102.38818359 295.94074219 -102.38818359 295.26074219 C-102.98759766 295.1640625 -103.58701172 295.06738281 -104.20458984 294.96777344 C-106.84836752 294.11173809 -107.64267192 293.12543458 -109.32568359 290.94824219 C-111.17980901 288.64931396 -112.73143888 286.98933103 -115.07568359 285.13574219 C-117.6039019 283.08583545 -118.79548239 281.06693003 -120.38818359 278.26074219 C-121.04818359 277.93074219 -121.70818359 277.60074219 -122.38818359 277.26074219 C-122.38818359 276.60074219 -122.38818359 275.94074219 -122.38818359 275.26074219 C-123.04818359 275.26074219 -123.70818359 275.26074219 -124.38818359 275.26074219 C-128.38818359 269.84897748 -128.38818359 269.84897748 -128.38818359 267.26074219 C-129.04818359 267.26074219 -129.70818359 267.26074219 -130.38818359 267.26074219 C-130.38818359 266.27074219 -130.38818359 265.28074219 -130.38818359 264.26074219 C-131.37818359 263.93074219 -132.36818359 263.60074219 -133.38818359 263.26074219 C-134.8330947 260.94888442 -136.11714324 258.66505279 -137.38818359 256.26074219 C-138.30428645 254.65625347 -139.22095891 253.05208986 -140.13818359 251.44824219 C-142.38818359 247.51074219 -142.38818359 247.51074219 -142.38818359 245.26074219 C-143.04818359 245.26074219 -143.70818359 245.26074219 -144.38818359 245.26074219 C-144.85998047 244.02710938 -144.85998047 244.02710938 -145.34130859 242.76855469 C-145.76927734 241.65222656 -146.19724609 240.53589844 -146.63818359 239.38574219 C-147.316875 237.61263672 -147.316875 237.61263672 -148.00927734 235.80371094 C-149.50244152 231.96716729 -151.07347955 228.16832913 -152.68896484 224.38183594 C-153.38818359 222.26074219 -153.38818359 222.26074219 -153.38818359 218.26074219 C-154.04818359 218.26074219 -154.70818359 218.26074219 -155.38818359 218.26074219 C-155.52095703 217.47828125 -155.65373047 216.69582031 -155.79052734 215.88964844 C-155.96712891 214.87773437 -156.14373047 213.86582031 -156.32568359 212.82324219 C-156.58671875 211.30923828 -156.58671875 211.30923828 -156.85302734 209.76464844 C-157.13569456 207.33199839 -157.13569456 207.33199839 -158.38818359 206.26074219 C-160.88462587 194.32043016 -160.69650208 182.15551179 -160.64892578 170.01806641 C-160.63820337 166.76673741 -160.64887662 163.51596076 -160.66162109 160.26464844 C-160.67156263 146.55266038 -160.30115882 133.50890201 -156.38818359 120.26074219 C-156.03446861 118.59828178 -155.69223037 116.93299948 -155.38818359 115.26074219 C-154.72818359 115.26074219 -154.06818359 115.26074219 -153.38818359 115.26074219 C-153.27216797 114.41382812 -153.15615234 113.56691406 -153.03662109 112.69433594 C-151.44582257 104.27077026 -147.91585905 96.05876161 -144.38818359 88.26074219 C-143.72818359 88.26074219 -143.06818359 88.26074219 -142.38818359 88.26074219 C-142.14068359 87.60074219 -141.89318359 86.94074219 -141.63818359 86.26074219 C-139.13426051 80.2513268 -136.30346084 74.48111185 -132.38818359 69.26074219 C-131.72818359 69.26074219 -131.06818359 69.26074219 -130.38818359 69.26074219 C-130.38818359 68.27074219 -130.38818359 67.28074219 -130.38818359 66.26074219 C-129.72818359 66.26074219 -129.06818359 66.26074219 -128.38818359 66.26074219 C-128.09943359 65.49761719 -127.81068359 64.73449219 -127.51318359 63.94824219 C-126.38818359 61.26074219 -126.38818359 61.26074219 -124.38818359 58.26074219 C-123.72818359 58.26074219 -123.06818359 58.26074219 -122.38818359 58.26074219 C-122.38818359 57.60074219 -122.38818359 56.94074219 -122.38818359 56.26074219 C-121.07844362 54.90422578 -119.74016218 53.57516581 -118.38818359 52.26074219 C-117.79005859 51.47699219 -117.19193359 50.69324219 -116.57568359 49.88574219 C-114.28077854 47.13185612 -111.82924669 44.96273182 -109.07177734 42.69042969 C-107.34741928 41.27858939 -107.34741928 41.27858939 -105.79833984 39.58105469 C-104.38818359 38.26074219 -104.38818359 38.26074219 -102.38818359 38.26074219 C-102.38818359 37.60074219 -102.38818359 36.94074219 -102.38818359 36.26074219 C-100.40818359 35.76574219 -100.40818359 35.76574219 -98.38818359 35.26074219 C-98.38818359 34.60074219 -98.38818359 33.94074219 -98.38818359 33.26074219 C-96.29368679 31.62644468 -94.21036269 30.11906984 -92.01318359 28.63574219 C-91.40990234 28.21550781 -90.80662109 27.79527344 -90.18505859 27.36230469 C-85.65355494 24.26074219 -85.65355494 24.26074219 -83.38818359 24.26074219 C-83.38818359 23.60074219 -83.38818359 22.94074219 -83.38818359 22.26074219 C-81.73818359 21.93074219 -80.08818359 21.60074219 -78.38818359 21.26074219 C-78.38818359 20.60074219 -78.38818359 19.94074219 -78.38818359 19.26074219 C-76.40818359 18.93074219 -74.42818359 18.60074219 -72.38818359 18.26074219 C-72.38818359 17.60074219 -72.38818359 16.94074219 -72.38818359 16.26074219 C-70.49485825 15.44241497 -68.59840626 14.63131951 -66.70068359 13.82324219 C-65.11707031 13.14455078 -65.11707031 13.14455078 -63.50146484 12.45214844 C-60.7684583 11.40626764 -58.26776022 10.7255347 -55.38818359 10.26074219 C-55.38818359 9.60074219 -55.38818359 8.94074219 -55.38818359 8.26074219 C-50.93318359 7.76574219 -50.93318359 7.76574219 -46.38818359 7.26074219 C-46.38818359 6.60074219 -46.38818359 5.94074219 -46.38818359 5.26074219 C-42.75818359 4.93074219 -39.12818359 4.60074219 -35.38818359 4.26074219 C-35.38818359 3.60074219 -35.38818359 2.94074219 -35.38818359 2.26074219 C-23.57827645 0.19847121 -11.9662918 -0.04908086 0 0 Z " fill="#E8EEFC" transform="translate(169.38818359375,5.7392578125)"/>
<path d="M0 0 C10.68006142 6.73843767 19.79679921 13.87345472 24.87890625 25.81640625 C27.48126591 38.46423817 26.09281905 49.77665539 21.87890625 61.81640625 C21.21890625 61.81640625 20.55890625 61.81640625 19.87890625 61.81640625 C19.87890625 62.47640625 19.87890625 63.13640625 19.87890625 63.81640625 C19.21890625 63.81640625 18.55890625 63.81640625 17.87890625 63.81640625 C19.2902219 68.43825867 21.57348863 70.6831623 25.19140625 73.81640625 C27.09288301 75.47663152 28.98878231 77.14326749 30.87890625 78.81640625 C31.84183594 79.66203125 32.80476562 80.50765625 33.796875 81.37890625 C35.87890625 83.81640625 35.87890625 83.81640625 35.8828125 85.92578125 C34.75932816 88.0416039 33.56372611 89.43061744 31.81640625 91.06640625 C30.99462891 91.84757812 30.99462891 91.84757812 30.15625 92.64453125 C29.73472656 93.03125 29.31320312 93.41796875 28.87890625 93.81640625 C25.78187297 92.44747688 23.76129017 90.89523266 21.44140625 88.44140625 C19.3931856 86.32301102 17.44417968 84.47060102 15.12890625 82.62890625 C12.93763232 80.86371336 11.45214243 79.13485957 9.87890625 76.81640625 C6.11158362 77.19313851 3.24119802 78.04107968 -0.05859375 79.81640625 C-5.05470295 82.43296439 -9.76333514 82.85507467 -15.33984375 82.83203125 C-17.2115625 82.82429688 -17.2115625 82.82429688 -19.12109375 82.81640625 C-19.11665253 83.75743698 -19.1122113 84.69846771 -19.1076355 85.66801453 C-19.0670761 94.54027671 -19.03710294 103.41252005 -19.01746941 112.28485394 C-19.00703627 116.84611058 -18.9928856 121.40729232 -18.97021484 125.96850586 C-18.94846977 130.37107389 -18.93652158 134.77356992 -18.93133926 139.17618752 C-18.9276465 140.85509182 -18.92043547 142.53399222 -18.90963364 144.21286583 C-18.89509657 146.56606918 -18.89311673 148.9189757 -18.89404297 151.2722168 C-18.88685242 151.96489655 -18.87966187 152.65757629 -18.87225342 153.37124634 C-18.90116998 160.16934011 -20.99969821 164.23513022 -25.4140625 169.17578125 C-33.10254504 176.5651695 -42.23474848 177.11486943 -52.33349609 177.10693359 C-54.17359001 177.11700943 -54.17359001 177.11700943 -56.05085754 177.12728882 C-59.40431425 177.14300121 -62.75752323 177.14964201 -66.11099958 177.15092039 C-68.20933172 177.15234531 -70.30763816 177.15662133 -72.4059639 177.16191483 C-79.73550303 177.18039776 -87.06496959 177.18858754 -94.39453125 177.18701172 C-101.21221238 177.18581049 -108.02957684 177.2069134 -114.84717786 177.23849905 C-120.71320779 177.26470159 -126.57913453 177.27537737 -132.4452225 177.2741009 C-135.94318266 177.27359247 -139.44086113 177.27920928 -142.93876266 177.300457 C-146.84260032 177.32352506 -150.74600775 177.31429412 -154.64990234 177.30224609 C-155.79925766 177.31348511 -156.94861298 177.32472412 -158.13279724 177.33630371 C-166.07924989 177.27405596 -171.36722784 176.03227849 -177.546875 170.73828125 C-178.16949219 170.0215625 -178.79210937 169.30484375 -179.43359375 168.56640625 C-180.06910156 167.86 -180.70460938 167.15359375 -181.359375 166.42578125 C-185.49447363 160.30106753 -186.56993725 154.4678258 -186.55688477 147.26416016 C-186.5669606 146.45000137 -186.57703644 145.63584259 -186.5874176 144.79701233 C-186.61571146 142.1288548 -186.62176437 139.46126657 -186.625 136.79296875 C-186.63465308 134.92263565 -186.64474644 133.05230478 -186.65525818 131.18197632 C-186.67317242 127.27002718 -186.67878398 123.3582763 -186.67700195 119.44628906 C-186.67669716 114.4540294 -186.71766892 109.46305047 -186.76931858 104.47109413 C-186.80280826 100.61038466 -186.80875572 96.74998088 -186.80717278 92.88914108 C-186.81069306 91.04966183 -186.82385064 89.21017297 -186.84716988 87.37083817 C-187.0638337 68.51923854 -187.0638337 68.51923854 -180.12109375 60.81640625 C-176.08950354 57.06506126 -172.74862865 55.2281771 -167.12109375 54.81640625 C-167.12109375 54.15640625 -167.12109375 53.49640625 -167.12109375 52.81640625 C-160.52109375 52.81640625 -153.92109375 52.81640625 -147.12109375 52.81640625 C-147.12109375 44.56640625 -147.12109375 36.31640625 -147.12109375 27.81640625 C-146.46109375 27.81640625 -145.80109375 27.81640625 -145.12109375 27.81640625 C-145.10046875 26.80578125 -145.07984375 25.79515625 -145.05859375 24.75390625 C-144.34522238 19.65691951 -140.94218744 16.95458107 -137.12109375 13.81640625 C-132.34013538 10.40143599 -127.91173414 9.71144085 -122.12231445 9.62353516 C-120.66973991 9.59944077 -120.66973991 9.59944077 -119.18782043 9.57485962 C-114.76886017 9.52999272 -110.35004344 9.489346 -105.9309082 9.46630859 C-103.60821498 9.44977005 -101.28557222 9.42250811 -98.96313477 9.38427734 C-95.59494927 9.32919859 -92.22795164 9.3075865 -88.859375 9.29296875 C-87.83298416 9.27029938 -86.80659332 9.24763 -85.74909973 9.22427368 C-76.48435872 9.25110396 -68.9249436 12.43779701 -62.12109375 18.81640625 C-61.13109375 20.30140625 -61.13109375 20.30140625 -60.12109375 21.81640625 C-59.78078125 21.25953125 -59.44046875 20.70265625 -59.08984375 20.12890625 C-46.77851555 0.74511291 -22.23357173 -11.10097251 0 0 Z " fill="#2563EA" transform="translate(257.12109375,80.18359375)"/>
<path d="M0 0 C10.68006142 6.73843767 19.79679921 13.87345472 24.87890625 25.81640625 C27.48126591 38.46423817 26.09281905 49.77665539 21.87890625 61.81640625 C21.21890625 61.81640625 20.55890625 61.81640625 19.87890625 61.81640625 C19.87890625 62.47640625 19.87890625 63.13640625 19.87890625 63.81640625 C19.21890625 63.81640625 18.55890625 63.81640625 17.87890625 63.81640625 C19.2902219 68.43825867 21.57348863 70.6831623 25.19140625 73.81640625 C27.09288301 75.47663152 28.98878231 77.14326749 30.87890625 78.81640625 C31.84183594 79.66203125 32.80476563 80.50765625 33.796875 81.37890625 C35.87890625 83.81640625 35.87890625 83.81640625 35.8828125 85.92578125 C34.75932816 88.0416039 33.56372611 89.43061744 31.81640625 91.06640625 C30.99462891 91.84757812 30.99462891 91.84757812 30.15625 92.64453125 C29.73472656 93.03125 29.31320312 93.41796875 28.87890625 93.81640625 C25.78187297 92.44747688 23.76129017 90.89523266 21.44140625 88.44140625 C19.3931856 86.32301102 17.44417968 84.47060102 15.12890625 82.62890625 C12.93763232 80.86371336 11.45214243 79.13485957 9.87890625 76.81640625 C6.13157903 77.19113897 3.75645764 77.88542274 0.44140625 79.75390625 C-8.04346378 84.22478007 -18.83702795 84.55174565 -28.12109375 82.81640625 C-29.26384766 82.71585938 -29.26384766 82.71585938 -30.4296875 82.61328125 C-39.79285167 81.47472049 -47.58903582 75.79328107 -53.7265625 68.8828125 C-59.12109375 61.69328678 -59.12109375 61.69328678 -59.12109375 57.81640625 C-59.78109375 57.81640625 -60.44109375 57.81640625 -61.12109375 57.81640625 C-64.35317726 46.30210876 -64.35022026 33.36745307 -61.12109375 21.81640625 C-59.43359375 19.06640625 -59.43359375 19.06640625 -57.12109375 16.81640625 C-56.01306339 15.5071664 -54.9092928 14.19431565 -53.80859375 12.87890625 C-40.33950035 -2.20308279 -19.18347674 -9.57809436 0 0 Z " fill="#67778F" transform="translate(257.12109375,80.18359375)"/>
<path d="M0 0 C9.93059695 -0.47529334 17.5046997 1.41876507 25.33203125 7.72265625 C26.6484375 9.00390625 26.6484375 9.00390625 28.5859375 11.31640625 C29.08609375 11.78304687 29.58625 12.2496875 30.1015625 12.73046875 C34.83313572 17.78578119 34.86631302 25.00180529 34.8984375 31.56640625 C34.90383545 32.25178467 34.9092334 32.93716309 34.91479492 33.64331055 C34.7936687 42.27697692 30.56188219 48.82682277 24.953125 55.16015625 C19.43258117 60.39825365 13.44633155 61.38894763 6.0234375 61.44140625 C4.8890625 61.40015625 3.7546875 61.35890625 2.5859375 61.31640625 C2.2559375 60.30578125 1.9259375 59.29515625 1.5859375 58.25390625 C-0.46472027 53.41317084 -4.19921583 50.32458311 -8.4140625 47.31640625 C-9.8990625 46.82140625 -9.8990625 46.82140625 -11.4140625 46.31640625 C-11.4140625 45.65640625 -11.4140625 44.99640625 -11.4140625 44.31640625 C-18.3440625 43.82140625 -18.3440625 43.82140625 -25.4140625 43.31640625 C-29.20501156 36.36633297 -29.78242674 29.07034773 -27.58203125 21.42578125 C-26.1491886 17.75512816 -24.60360466 14.6007195 -22.4140625 11.31640625 C-21.7540625 11.31640625 -21.0940625 11.31640625 -20.4140625 11.31640625 C-20.4140625 10.65640625 -20.4140625 9.99640625 -20.4140625 9.31640625 C-14.22134332 3.23836706 -8.48580046 0.78644146 0 0 Z " fill="#E7EDFB" transform="translate(234.4140625,89.68359375)"/>
<path d="M0 0 C0.89813416 -0.00953201 1.79626831 -0.01906403 2.72161865 -0.02888489 C3.69036926 -0.02797348 4.65911987 -0.02706207 5.65722656 -0.02612305 C6.65739807 -0.03040817 7.65756958 -0.0346933 8.68804932 -0.03910828 C10.8063481 -0.04485432 12.92466661 -0.04534983 15.04296875 -0.04101562 C18.27150582 -0.03786749 21.49911611 -0.06127063 24.72753906 -0.08666992 C26.78743374 -0.08894418 28.84733088 -0.08964582 30.90722656 -0.08862305 C31.86788025 -0.09783279 32.82853394 -0.10704254 33.81829834 -0.11653137 C39.47797397 -0.07782348 43.63001242 0.36248706 48.54785156 3.2746582 C51.54785156 8.2746582 51.54785156 8.2746582 51.54785156 31.2746582 C30.42785156 31.2746582 9.30785156 31.2746582 -12.45214844 31.2746582 C-12.45214844 7.2746582 -12.45214844 7.2746582 -7.45214844 2.2746582 C-4.31550647 0.18356356 -3.57486304 0.02086469 0 0 Z " fill="#E6EDFC" transform="translate(135.4521484375,101.725341796875)"/>
<path d="M0 0 C0.85916016 -0.01546875 1.71832031 -0.0309375 2.60351562 -0.046875 C6.43231297 -0.0231121 8.8510204 0.05303102 12.13671875 2.1171875 C14.0254202 5.27364746 14.02836452 7.46563783 13.9375 11.125 C13.91816406 12.84589844 13.91816406 12.84589844 13.8984375 14.6015625 C13.5625 17.5 13.5625 17.5 11.5625 19.5 C8.10414121 19.97682157 4.61252488 19.87037157 1.125 19.875 C-0.32616211 19.91173828 -0.32616211 19.91173828 -1.80664062 19.94921875 C-2.73541016 19.95308594 -3.66417969 19.95695312 -4.62109375 19.9609375 C-5.89811157 19.97326416 -5.89811157 19.97326416 -7.20092773 19.98583984 C-9.4375 19.5 -9.4375 19.5 -11.21362305 17.63720703 C-12.75673987 14.94252428 -12.83798121 13.09171985 -12.8125 10 C-12.82023438 9.0615625 -12.82796875 8.123125 -12.8359375 7.15625 C-11.66527749 -0.64815007 -6.71308861 -0.12032422 0 0 Z " fill="#EFF4FD" transform="translate(154.4375,175.5)"/>
<path d="M0 0 C1.58323688 -0.027193 3.16661062 -0.04648306 4.75 -0.0625 C6.07257813 -0.07990234 6.07257813 -0.07990234 7.421875 -0.09765625 C9.7818838 -0.00826198 11.74498524 0.33087179 14 1 C14 1.66 14 2.32 14 3 C14.57492188 3.09539062 15.14984375 3.19078125 15.7421875 3.2890625 C18.49799767 4.15680895 19.98507128 5.44662317 22.125 7.375 C22.80820313 7.98085937 23.49140625 8.58671875 24.1953125 9.2109375 C26 11 26 11 28 14 C28 15.32 28 16.64 28 18 C16.49138712 17.32847128 11.18047687 14.62636882 3.0390625 6.47265625 C1.13078715 4.15859821 0.36620349 2.92284636 0 0 Z " fill="#2E68E9" transform="translate(209,133)"/>
<path d="M0 0 C1.16725896 4.15972901 1.09120058 8.15204984 1.02172852 12.44042969 C1.01212097 13.28957443 1.00251343 14.13871918 0.99261475 15.01359558 C0.95967024 17.81644094 0.91932055 20.61912822 0.87890625 23.421875 C0.85460069 25.36671392 0.83075735 27.31155866 0.80735779 29.25640869 C0.74456025 34.37252444 0.67548128 39.48853689 0.60510254 44.60455322 C0.53438002 49.82616475 0.4695865 55.04784946 0.40429688 60.26953125 C0.27534033 70.51310126 0.13974904 80.75657194 0 91 C-0.99 91.495 -0.99 91.495 -2 92 C-2.0462914 80.4476704 -2.08185294 68.89536278 -2.10362434 57.3429594 C-2.11407224 51.97901324 -2.12824982 46.61513041 -2.15087891 41.2512207 C-2.17257138 36.07708423 -2.18456104 30.90300877 -2.18975449 25.72883034 C-2.19345671 23.75241955 -2.200686 21.77601219 -2.21146011 19.7996273 C-2.22592722 17.03651015 -2.22797995 14.27364683 -2.22705078 11.51049805 C-2.23424133 10.68906815 -2.24143188 9.86763824 -2.24884033 9.02131653 C-2.23470835 5.15086123 -2.19802642 3.29703963 0 0 Z " fill="#F4F7FE" transform="translate(71,147)"/>
<path d="M0 0 C-2.64 0.33 -5.28 0.66 -8 1 C-8 1.99 -8 2.98 -8 4 C-8.9075 4.226875 -9.815 4.45375 -10.75 4.6875 C-14.48428873 6.19557814 -15.63968133 7.82577834 -18 11 C-18.99 11.33 -19.98 11.66 -21 12 C-18.6925274 6.68227128 -14.28505834 2.57312653 -9.05859375 0.0703125 C-5.8044131 -0.95584382 -3.19635795 -1.27854318 0 0 Z " fill="#4F81EE" transform="translate(134,91)"/>
<path d="M0 0 C-2.64 0.33 -5.28 0.66 -8 1 C-8 1.99 -8 2.98 -8 4 C-9.32 4 -10.64 4 -12 4 C-11.67 3.01 -11.34 2.02 -11 1 C-7.08609399 -0.47694566 -4.00565371 -1.60226148 0 0 Z " fill="#4479EE" transform="translate(134,91)"/>
</svg>
